<svg xmlns="http://www.w3.org/2000/svg" xmlns:xlink="http://www.w3.org/1999/xlink" width="200" zoomAndPan="magnify" viewBox="0 0 150 30.000001" height="40" preserveAspectRatio="xMidYMid meet" version="1.0"><defs><g/><clipPath id="eeaeaa60e9"><path d="M 3.582031 0.589844 L 31.164062 0.589844 L 31.164062 28.171875 L 3.582031 28.171875 Z M 3.582031 0.589844 " clip-rule="nonzero"/></clipPath></defs><path fill="#d78629" d="M 20.390625 14.511719 C 20.390625 14.949219 20.308594 15.375 20.140625 15.78125 C 19.972656 16.1875 19.730469 16.542969 19.421875 16.855469 C 19.109375 17.164062 18.753906 17.40625 18.347656 17.574219 C 17.941406 17.742188 17.515625 17.824219 17.078125 17.824219 C 16.636719 17.824219 16.214844 17.742188 15.808594 17.574219 C 15.402344 17.40625 15.042969 17.164062 14.734375 16.855469 C 14.421875 16.542969 14.183594 16.1875 14.015625 15.78125 C 13.847656 15.375 13.761719 14.949219 13.761719 14.511719 C 13.761719 14.070312 13.847656 13.648438 14.015625 13.242188 C 14.183594 12.835938 14.421875 12.480469 14.734375 12.167969 C 15.042969 11.855469 15.402344 11.617188 15.808594 11.449219 C 16.214844 11.28125 16.636719 11.195312 17.078125 11.195312 C 17.515625 11.195312 17.941406 11.28125 18.347656 11.449219 C 18.753906 11.617188 19.109375 11.855469 19.421875 12.167969 C 19.730469 12.480469 19.972656 12.835938 20.140625 13.242188 C 20.308594 13.648438 20.390625 14.070312 20.390625 14.511719 Z M 20.390625 14.511719 " fill-opacity="1" fill-rule="nonzero"/><g clip-path="url(#eeaeaa60e9)"><path fill="#d78629" d="M 17.078125 0.59375 C 10.59375 0.59375 5.144531 5.03125 3.597656 11.03125 C 3.585938 11.085938 3.578125 11.140625 3.574219 11.195312 C 3.574219 11.5625 3.871094 11.859375 4.238281 11.859375 L 9.851562 11.859375 C 10.136719 11.859375 10.335938 11.730469 10.453125 11.472656 C 10.453125 11.472656 10.460938 11.457031 10.464844 11.449219 C 11.621094 8.953125 14.148438 7.21875 17.082031 7.21875 C 21.105469 7.21875 24.371094 10.480469 24.371094 14.507812 C 24.371094 18.535156 21.109375 21.800781 17.082031 21.800781 C 14.148438 21.800781 11.625 20.066406 10.464844 17.570312 C 10.460938 17.5625 10.453125 17.546875 10.453125 17.546875 C 10.347656 17.3125 10.109375 17.15625 9.851562 17.15625 L 4.238281 17.15625 C 3.871094 17.15625 3.578125 17.453125 3.578125 17.820312 C 3.578125 17.875 3.585938 17.933594 3.601562 17.984375 C 5.144531 23.988281 10.59375 28.425781 17.078125 28.425781 C 24.765625 28.421875 31.007812 22.191406 31.007812 14.507812 C 31.007812 6.820312 24.777344 0.589844 17.089844 0.589844 Z M 17.078125 0.59375 " fill-opacity="1" fill-rule="nonzero"/></g><g fill="#000000" fill-opacity="1"><g transform="translate(28.909243, 17.884518)"><g><path d="M 4.191406 0.195312 C 7.023438 0.195312 8.902344 -1.035156 9.226562 -3.121094 L 10.054688 -8.292969 L 6.507812 -8.292969 L 5.699219 -3.269531 C 5.609375 -2.601562 5.054688 -2.199219 4.386719 -2.199219 C 3.605469 -2.199219 3.097656 -2.695312 3.132812 -3.535156 L -0.0117188 -2.753906 C -0.105469 -0.898438 1.460938 0.195312 4.191406 0.195312 Z M 4.191406 0.195312 "/></g></g></g><g fill="#000000" fill-opacity="1"><g transform="translate(38.579426, 17.884518)"><g><path d="M 0.105469 0 L 8.601562 0 L 8.949219 -2.210938 L 3.882812 -2.210938 L 4.054688 -3.269531 L 8.546875 -3.269531 L 8.832031 -5.136719 L 4.339844 -5.136719 L 4.503906 -6.082031 L 9.453125 -6.082031 L 9.800781 -8.292969 L 1.417969 -8.292969 Z M 0.105469 0 "/></g></g></g><g fill="#000000" fill-opacity="1"><g transform="translate(47.881216, 17.884518)"><g><path d="M 8.742188 0.21875 C 9.535156 0.21875 10.570312 -0.0234375 11.113281 -0.378906 L 10.871094 -1.773438 C 10.734375 -1.679688 10.46875 -1.613281 10.296875 -1.613281 C 9.972656 -1.613281 9.800781 -1.738281 9.683594 -1.945312 L 9.292969 -2.601562 C 9.15625 -2.890625 8.960938 -3.085938 8.730469 -3.15625 L 8.730469 -3.167969 C 10.421875 -3.570312 11.355469 -4.550781 11.355469 -5.941406 C 11.355469 -7.449219 10.191406 -8.292969 8.109375 -8.292969 L 1.417969 -8.292969 L 0.105469 0 L 3.652344 0 L 4.066406 -2.578125 L 4.929688 -2.578125 C 5.46875 -2.578125 5.875 -2.371094 6.125 -1.910156 L 6.414062 -1.335938 C 6.792969 -0.5625 7.382812 0.21875 8.742188 0.21875 Z M 4.363281 -4.515625 L 4.628906 -6.21875 L 6.679688 -6.21875 C 7.371094 -6.21875 7.75 -5.953125 7.75 -5.480469 C 7.75 -4.859375 7.265625 -4.515625 6.402344 -4.515625 Z M 4.363281 -4.515625 "/></g></g></g><g fill="#000000" fill-opacity="1"><g transform="translate(59.427876, 17.884518)"><g><path d="M 0.105469 0 L 8.601562 0 L 8.949219 -2.210938 L 3.882812 -2.210938 L 4.054688 -3.269531 L 8.546875 -3.269531 L 8.832031 -5.136719 L 4.339844 -5.136719 L 4.503906 -6.082031 L 9.453125 -6.082031 L 9.800781 -8.292969 L 1.417969 -8.292969 Z M 0.105469 0 "/></g></g></g><g fill="#000000" fill-opacity="1"><g transform="translate(68.729666, 17.884518)"><g><path d="M 0.105469 0 L 3.398438 0 L 4.113281 -4.582031 L 4.132812 -4.582031 L 5.609375 0 L 8.441406 0 L 11.273438 -4.582031 L 11.296875 -4.570312 L 10.5625 0 L 13.855469 0 L 15.167969 -8.292969 L 10.628906 -8.292969 L 7.484375 -3.269531 L 7.460938 -3.269531 L 5.90625 -8.292969 L 1.417969 -8.292969 Z M 0.105469 0 "/></g></g></g><g fill="#000000" fill-opacity="1"><g transform="translate(83.626356, 17.884518)"><g><path d="M 0.105469 0 L 3.628906 0 L 4.941406 -8.292969 L 1.417969 -8.292969 Z M 0.105469 0 "/></g></g></g><g fill="#000000" fill-opacity="1"><g transform="translate(88.300272, 17.884518)"><g><path d="M 0.105469 0 L 8.601562 0 L 8.949219 -2.210938 L 3.882812 -2.210938 L 4.054688 -3.269531 L 8.546875 -3.269531 L 8.832031 -5.136719 L 4.339844 -5.136719 L 4.503906 -6.082031 L 9.453125 -6.082031 L 9.800781 -8.292969 L 1.417969 -8.292969 Z M 0.105469 0 "/></g></g></g><g fill="#000000" fill-opacity="1"><g transform="translate(97.602062, 17.884518)"><g/></g></g><g fill="#000000" fill-opacity="1"><g transform="translate(99.92751, 17.884518)"><g><path d="M 5.917969 0.195312 C 8.660156 0.195312 11.195312 -1.199219 11.863281 -3.28125 L 8.671875 -3.777344 C 8.359375 -2.878906 7.335938 -2.335938 6.183594 -2.335938 C 4.90625 -2.335938 4.03125 -2.914062 4.03125 -3.871094 C 4.03125 -5.066406 5.171875 -5.953125 6.425781 -5.953125 C 7.441406 -5.953125 8.003906 -5.527344 8.117188 -4.78125 L 11.449219 -5.425781 C 11.285156 -7.265625 9.421875 -8.488281 6.519531 -8.488281 C 3.445312 -8.488281 0.484375 -6.574219 0.484375 -3.664062 C 0.484375 -1.253906 2.601562 0.195312 5.917969 0.195312 Z M 5.917969 0.195312 "/></g></g></g><g fill="#000000" fill-opacity="1"><g transform="translate(111.865574, 17.884518)"><g><path d="M 5.769531 0.289062 C 9.304688 0.289062 12.414062 -1.625 12.414062 -4.824219 C 12.414062 -7.117188 10.386719 -8.578125 7.105469 -8.578125 C 3.570312 -8.578125 0.460938 -6.679688 0.460938 -3.464844 C 0.460938 -1.175781 2.488281 0.289062 5.769531 0.289062 Z M 6.160156 -2.246094 C 4.847656 -2.246094 4.042969 -2.855469 4.042969 -3.835938 C 4.042969 -5.171875 5.21875 -6.046875 6.714844 -6.046875 C 8.027344 -6.046875 8.832031 -5.4375 8.832031 -4.457031 C 8.832031 -3.132812 7.660156 -2.246094 6.160156 -2.246094 Z M 6.160156 -2.246094 "/></g></g></g><g fill="#000000" fill-opacity="1"><g transform="translate(124.36774, 17.884518)"><g><path d="M 0.105469 0 L 5.644531 0 C 9.433594 0 11.515625 -1.714844 11.515625 -4.78125 C 11.515625 -7.035156 9.8125 -8.292969 6.726562 -8.292969 L 1.417969 -8.292969 Z M 3.914062 -2.394531 L 4.46875 -5.894531 L 6.117188 -5.894531 C 7.359375 -5.894531 8.039062 -5.378906 8.039062 -4.421875 C 8.039062 -3.132812 7.152344 -2.394531 5.5625 -2.394531 Z M 3.914062 -2.394531 "/></g></g></g><g fill="#000000" fill-opacity="1"><g transform="translate(135.994977, 17.884518)"><g><path d="M 0.105469 0 L 8.601562 0 L 8.949219 -2.210938 L 3.882812 -2.210938 L 4.054688 -3.269531 L 8.546875 -3.269531 L 8.832031 -5.136719 L 4.339844 -5.136719 L 4.503906 -6.082031 L 9.453125 -6.082031 L 9.800781 -8.292969 L 1.417969 -8.292969 Z M 0.105469 0 "/></g></g></g></svg>