<svg xmlns="http://www.w3.org/2000/svg" xmlns:xlink="http://www.w3.org/1999/xlink" width="200" zoomAndPan="magnify" viewBox="0 0 150 30.000001" height="40" preserveAspectRatio="xMidYMid meet" version="1.0"><defs><g/><clipPath id="aa502d6973"><path d="M 3.582031 0.589844 L 31.164062 0.589844 L 31.164062 28.171875 L 3.582031 28.171875 Z M 3.582031 0.589844 " clip-rule="nonzero"/></clipPath></defs><path fill="#d78629" d="M 20.390625 14.511719 C 20.390625 14.949219 20.308594 15.375 20.140625 15.78125 C 19.972656 16.1875 19.730469 16.542969 19.421875 16.855469 C 19.109375 17.164062 18.753906 17.40625 18.347656 17.574219 C 17.941406 17.742188 17.515625 17.824219 17.078125 17.824219 C 16.636719 17.824219 16.214844 17.742188 15.808594 17.574219 C 15.402344 17.40625 15.042969 17.164062 14.734375 16.855469 C 14.421875 16.542969 14.183594 16.1875 14.015625 15.78125 C 13.847656 15.375 13.761719 14.949219 13.761719 14.511719 C 13.761719 14.070312 13.847656 13.648438 14.015625 13.242188 C 14.183594 12.835938 14.421875 12.480469 14.734375 12.167969 C 15.042969 11.855469 15.402344 11.617188 15.808594 11.449219 C 16.214844 11.28125 16.636719 11.195312 17.078125 11.195312 C 17.515625 11.195312 17.941406 11.28125 18.347656 11.449219 C 18.753906 11.617188 19.109375 11.855469 19.421875 12.167969 C 19.730469 12.480469 19.972656 12.835938 20.140625 13.242188 C 20.308594 13.648438 20.390625 14.070312 20.390625 14.511719 Z M 20.390625 14.511719 " fill-opacity="1" fill-rule="nonzero"/><g clip-path="url(#aa502d6973)"><path fill="#d78629" d="M 17.078125 0.59375 C 10.59375 0.59375 5.144531 5.03125 3.597656 11.03125 C 3.585938 11.085938 3.578125 11.140625 3.574219 11.195312 C 3.574219 11.5625 3.871094 11.859375 4.238281 11.859375 L 9.851562 11.859375 C 10.136719 11.859375 10.335938 11.730469 10.453125 11.472656 C 10.453125 11.472656 10.460938 11.457031 10.464844 11.449219 C 11.621094 8.953125 14.148438 7.21875 17.082031 7.21875 C 21.105469 7.21875 24.371094 10.480469 24.371094 14.507812 C 24.371094 18.535156 21.109375 21.800781 17.082031 21.800781 C 14.148438 21.800781 11.625 20.066406 10.464844 17.570312 C 10.460938 17.5625 10.453125 17.546875 10.453125 17.546875 C 10.347656 17.3125 10.109375 17.15625 9.851562 17.15625 L 4.238281 17.15625 C 3.871094 17.15625 3.578125 17.453125 3.578125 17.820312 C 3.578125 17.875 3.585938 17.933594 3.601562 17.984375 C 5.144531 23.988281 10.59375 28.425781 17.078125 28.425781 C 24.765625 28.421875 31.007812 22.191406 31.007812 14.507812 C 31.007812 6.820312 24.777344 0.589844 17.089844 0.589844 Z M 17.078125 0.59375 " fill-opacity="1" fill-rule="nonzero"/></g><g fill="#ffffff" fill-opacity="1"><g transform="translate(28.145178, 18.409261)"><g><path d="M 4.210938 0.195312 C 7.054688 0.195312 8.9375 -1.039062 9.261719 -3.132812 L 10.09375 -8.324219 L 6.535156 -8.324219 L 5.722656 -3.285156 C 5.632812 -2.613281 5.078125 -2.207031 4.40625 -2.207031 C 3.621094 -2.207031 3.109375 -2.707031 3.144531 -3.550781 L -0.0117188 -2.761719 C -0.105469 -0.902344 1.46875 0.195312 4.210938 0.195312 Z M 4.210938 0.195312 "/></g></g></g><g fill="#ffffff" fill-opacity="1"><g transform="translate(37.854739, 18.409261)"><g><path d="M 0.105469 0 L 8.636719 0 L 8.984375 -2.21875 L 3.898438 -2.21875 L 4.070312 -3.285156 L 8.578125 -3.285156 L 8.867188 -5.15625 L 4.359375 -5.15625 L 4.519531 -6.105469 L 9.492188 -6.105469 L 9.839844 -8.324219 L 1.421875 -8.324219 Z M 0.105469 0 "/></g></g></g><g fill="#ffffff" fill-opacity="1"><g transform="translate(47.194406, 18.409261)"><g><path d="M 8.777344 0.21875 C 9.574219 0.21875 10.613281 -0.0234375 11.160156 -0.382812 L 10.914062 -1.78125 C 10.777344 -1.6875 10.511719 -1.617188 10.335938 -1.617188 C 10.015625 -1.617188 9.839844 -1.746094 9.726562 -1.953125 L 9.332031 -2.613281 C 9.191406 -2.902344 8.996094 -3.097656 8.765625 -3.167969 L 8.765625 -3.179688 C 10.464844 -3.585938 11.402344 -4.566406 11.402344 -5.964844 C 11.402344 -7.480469 10.234375 -8.324219 8.140625 -8.324219 L 1.421875 -8.324219 L 0.105469 0 L 3.664062 0 L 4.082031 -2.589844 L 4.949219 -2.589844 C 5.492188 -2.589844 5.898438 -2.382812 6.152344 -1.917969 L 6.441406 -1.339844 C 6.824219 -0.566406 7.414062 0.21875 8.777344 0.21875 Z M 4.382812 -4.53125 L 4.648438 -6.246094 L 6.707031 -6.246094 C 7.402344 -6.246094 7.78125 -5.976562 7.78125 -5.503906 C 7.78125 -4.878906 7.296875 -4.53125 6.429688 -4.53125 Z M 4.382812 -4.53125 "/></g></g></g><g fill="#ffffff" fill-opacity="1"><g transform="translate(58.788086, 18.409261)"><g><path d="M 0.105469 0 L 8.636719 0 L 8.984375 -2.21875 L 3.898438 -2.21875 L 4.070312 -3.285156 L 8.578125 -3.285156 L 8.867188 -5.15625 L 4.359375 -5.15625 L 4.519531 -6.105469 L 9.492188 -6.105469 L 9.839844 -8.324219 L 1.421875 -8.324219 Z M 0.105469 0 "/></g></g></g><g fill="#ffffff" fill-opacity="1"><g transform="translate(68.127753, 18.409261)"><g><path d="M 0.105469 0 L 3.410156 0 L 4.128906 -4.601562 L 4.152344 -4.601562 L 5.632812 0 L 8.476562 0 L 11.320312 -4.601562 L 11.34375 -4.589844 L 10.605469 0 L 13.910156 0 L 15.230469 -8.324219 L 10.671875 -8.324219 L 7.515625 -3.285156 L 7.492188 -3.285156 L 5.933594 -8.324219 L 1.421875 -8.324219 Z M 0.105469 0 "/></g></g></g><g fill="#ffffff" fill-opacity="1"><g transform="translate(83.085103, 18.409261)"><g><path d="M 0.105469 0 L 3.640625 0 L 4.960938 -8.324219 L 1.421875 -8.324219 Z M 0.105469 0 "/></g></g></g><g fill="#ffffff" fill-opacity="1"><g transform="translate(87.778052, 18.409261)"><g><path d="M 0.105469 0 L 8.636719 0 L 8.984375 -2.21875 L 3.898438 -2.21875 L 4.070312 -3.285156 L 8.578125 -3.285156 L 8.867188 -5.15625 L 4.359375 -5.15625 L 4.519531 -6.105469 L 9.492188 -6.105469 L 9.839844 -8.324219 L 1.421875 -8.324219 Z M 0.105469 0 "/></g></g></g><g fill="#ffffff" fill-opacity="1"><g transform="translate(97.117719, 18.409261)"><g/></g></g><g fill="#ffffff" fill-opacity="1"><g transform="translate(99.452636, 18.409261)"><g><path d="M 5.945312 0.195312 C 8.695312 0.195312 11.238281 -1.203125 11.910156 -3.296875 L 8.707031 -3.792969 C 8.394531 -2.890625 7.367188 -2.347656 6.210938 -2.347656 C 4.925781 -2.347656 4.046875 -2.925781 4.046875 -3.886719 C 4.046875 -5.085938 5.191406 -5.976562 6.453125 -5.976562 C 7.46875 -5.976562 8.035156 -5.550781 8.152344 -4.796875 L 11.492188 -5.445312 C 11.332031 -7.296875 9.457031 -8.523438 6.542969 -8.523438 C 3.457031 -8.523438 0.484375 -6.601562 0.484375 -3.675781 C 0.484375 -1.261719 2.613281 0.195312 5.945312 0.195312 Z M 5.945312 0.195312 "/></g></g></g><g fill="#ffffff" fill-opacity="1"><g transform="translate(111.439313, 18.409261)"><g><path d="M 5.792969 0.289062 C 9.34375 0.289062 12.464844 -1.628906 12.464844 -4.84375 C 12.464844 -7.144531 10.429688 -8.613281 7.132812 -8.613281 C 3.585938 -8.613281 0.460938 -6.707031 0.460938 -3.480469 C 0.460938 -1.179688 2.496094 0.289062 5.792969 0.289062 Z M 6.1875 -2.253906 C 4.867188 -2.253906 4.058594 -2.867188 4.058594 -3.851562 C 4.058594 -5.191406 5.238281 -6.070312 6.742188 -6.070312 C 8.058594 -6.070312 8.867188 -5.457031 8.867188 -4.476562 C 8.867188 -3.144531 7.691406 -2.253906 6.1875 -2.253906 Z M 6.1875 -2.253906 "/></g></g></g><g fill="#ffffff" fill-opacity="1"><g transform="translate(123.992389, 18.409261)"><g><path d="M 0.105469 0 L 5.667969 0 C 9.46875 0 11.5625 -1.722656 11.5625 -4.796875 C 11.5625 -7.066406 9.851562 -8.324219 6.753906 -8.324219 L 1.421875 -8.324219 Z M 3.929688 -2.40625 L 4.488281 -5.921875 L 6.140625 -5.921875 C 7.390625 -5.921875 8.070312 -5.398438 8.070312 -4.441406 C 8.070312 -3.144531 7.179688 -2.40625 5.585938 -2.40625 Z M 3.929688 -2.40625 "/></g></g></g><g fill="#ffffff" fill-opacity="1"><g transform="translate(135.666973, 18.409261)"><g><path d="M 0.105469 0 L 8.636719 0 L 8.984375 -2.21875 L 3.898438 -2.21875 L 4.070312 -3.285156 L 8.578125 -3.285156 L 8.867188 -5.15625 L 4.359375 -5.15625 L 4.519531 -6.105469 L 9.492188 -6.105469 L 9.839844 -8.324219 L 1.421875 -8.324219 Z M 0.105469 0 "/></g></g></g></svg>